<?xml version="1.0" encoding="UTF-8"?>
<svg version="1.1" viewBox="0 0 1280 915" width="1280" height="1280" xmlns="http://www.w3.org/2000/svg">
<path transform="translate(0)" d="m0 0h1280v915h-1280z" fill="#394458"/>
<path transform="translate(0)" d="m0 0h1280v915h-1280zm630 91-41 3-41 5-41 7-31 7-30 8-37 12-28 11-26 12-16 8-19 10-20 12-18 12-14 10-13 10-11 9-14 12-27 27-18 22-12 17-12 20-8 16-8 18-9 27-6 26-3 21-1 13v27l3 25 5 23 9 27 9 19 12 22 7 13 13 18 9 11 12 14 26 26 11 9 12 10 19 14 15 10 18 11 16 9 23 12 24 11 31 12 30 10 29 8 35 8 39 7 39 5 24 2 30 1h33l45-2 41-4 40-6 39-8 30-8 32-10 34-13 27-12 30-15 24-14 22-14 18-13 14-11 13-11 12-11 22-22 9-11 12-15 14-21 12-21 10-21 9-24 7-25 2-9 3-38v-21l-3-24-6-27-10-30-8-18-12-23-14-21-10-13-11-13-11-12-16-16-8-7-17-14-19-14-26-17-19-11-26-14-31-14-31-12-34-11-44-11-37-7-36-5-31-3-34-2z" fill="#FEFEFE"/>
<path transform="translate(855,159)" d="m0 0 9 1 4 5v3l7 1 2 3 10 3 3 6 1 5v33l-2 7-5 4-6 2-3 3-4 2-3 5-6 2h-5l-4-7-3-12-1-7v-8h-2v2h-3l3 17 8 23 14 30 2 9 1 9v16l-7 5h-7l-4-5-2-8 2 13 2 3h16v12l-10 4 10-2-2 4-15 8-19 7-21 5-11 2h-14l-26-4-21-4-14 19-8 12-5-2-3-3-1 3-6-1-11-6-5-8-3-4 1 8 7 8 14 7 10 1-3 10-3 6h34l-2 6-42 78-15 28-14 26-3 5-1 145h-61l-1-145-14-28-10-19-23-45-15-29-11-21v-2l28-1-4-10 1-4 10-1 10-5 8-7 3-8v-3l-5 6-4 6-8 5-4 2h-5l-1-2-5 4h-3l-11-16-9-12-1-3-36 7-8 1h-19l-24-5-16-5-16-7-10-6 1-3 7 2-9-4v-7l1-5 14 1 3-3 2-7v-5l-3 8-5 4-9-3-3-3 1-22 3-12 15-33 8-25v-11l-3-2-4 24-4 8-1 1h-7l-5-3-2-4-6-3-1-2-8-3-3-2-2-13v-23l2-11 3-5 9-2 3-4h6l2-6 4-3h8l4 5 1 6 1 26h2l1-6 4-6 6-4 9 1h9l3 1h6l12 3 3 6v5l5-1 3-26 3-7 2-2h7l5 3 3 6 7 3 1 2 9 3 3 8v22l-3 20-4 4-9 3-3 3h-4l-2 4-4 3h-7l-3-3-3-11-1-9v-11h-3l-1 6-2 3-15 5-6 4-7 14-3 12-1 8v13l3 16 4 11 13-3 16-1 5 4 3 8-1 8-3 6 1 3 2 1-2-5 5-6v-10l-3-4v-2l-3-1 1-2 17 3 9-1 14-7 14-8 6-2h12l13 4 2 1-2 4-2 7v3l6-11 19-10 6-5 4-8 2-5 5-8 1-7-5 12-2 2-2-13v-10h-2l-1 3-3-3-2-6v-17l4 1v-16l4-12 6-9 7-6 10-3h17l10 5 7 8 5 11 1 3v18l5 1v12l-3 10-5 3-2 19-3-1-5-13 2 9 4 6 5 11 5 6 15 8 6 3 5 8 1 3-1-8-3-3v-3l12-4 5-1h9l11 4 19 11 7 3h9l10-2h7 2 14l13 2 4 2 1-5 4-15 1-7v-14l-3-16-5-13-4-6-12-5-8-3-3-5v-3h-3v14l-2 12-3 7-6 1-7-3-2-5h-5l-4-4-8-2-3-3-3-20v-23l3-7 3-2 6-1 4-5h5l2-6 3-3h10l3 4 2 8 2 23h5l1-7 5-5h6l4-2h7l2-1h11l6-1 8 6 4 9 1-6 1-18 2-9z" fill="#A3B1BA"/>
<path transform="translate(642,72)" d="m0 0h24l31 1 42 3 41 5 41 7 39 9 35 10 29 10 32 13 30 14 26 14 23 14 19 13 15 11 14 11 15 13 13 12 12 12 7 8 11 13 14 19 13 21 13 25 8 20 8 24 6 27 3 21 1 11v14l-4 46-6 24-9 26-11 25-10 19-12 19-13 18-11 13-9 11-26 26-8 7-13 11-20 15-20 14-28 17-22 12-16 8-25 12-38 15-40 13-30 8-37 8-37 6-34 4-42 3-35 1h-21l-34-1-26-2-46-6-39-7-39-9-31-9-36-12-29-12-24-11-27-14-25-15-12-8-17-12-13-10-16-13-13-12-12-11-14-15-9-11-12-15-12-18-14-27-9-16-9-24-6-21-4-20-3-29v-17l3-31 5-27 7-24 7-19 9-20 9-17 12-19 14-19 11-13 7-8 12-13 9-9 8-7 10-9 14-11 17-13 30-20 15-9 16-9 23-12 33-15 29-11 33-11 37-10 37-8 43-7 45-5 27-2zm-12 19-41 3-41 5-41 7-31 7-30 8-37 12-28 11-26 12-16 8-19 10-20 12-18 12-14 10-13 10-11 9-14 12-27 27-18 22-12 17-12 20-8 16-8 18-9 27-6 26-3 21-1 13v27l3 25 5 23 9 27 9 19 12 22 7 13 13 18 9 11 12 14 26 26 11 9 12 10 19 14 15 10 18 11 16 9 23 12 24 11 31 12 30 10 29 8 35 8 39 7 39 5 24 2 30 1h33l45-2 41-4 40-6 39-8 30-8 32-10 34-13 27-12 30-15 24-14 22-14 18-13 14-11 13-11 12-11 22-22 9-11 12-15 14-21 12-21 10-21 9-24 7-25 2-9 3-38v-21l-3-24-6-27-10-30-8-18-12-23-14-21-10-13-11-13-11-12-16-16-8-7-17-14-19-14-26-17-19-11-26-14-31-14-31-12-34-11-44-11-37-7-36-5-31-3-34-2z" fill="#A4B2BB"/>
<path transform="translate(761,406)" d="m0 0h67l13 36 16 45 19 53 11 31 9-24 16-45 28-78 7-18h65v288h-68l-1-1-1-95-19 55-13 37-2 4h-41l-4-8-17-50-15-43-1 101h-68l-1-1z" fill="#A4B2BB"/>
<path transform="translate(396,405)" d="m0 0 20 1 19 4 12 5 12 7 13 11 11 14 11 21 1 3-52 34-3-1-7-14-5-6-10-6-6-2h-19l-11 4-6 4-8 9-5 12-2 13v64l3 14 6 12 7 8 10 6 7 3 6 1h12l10-2 10-6 6-7 1-16h-30v-56h93v102l-9 11-15 15-14 10-16 8-18 6-16 3h-26l-18-3-19-7-13-8-11-9-9-10-9-14-6-13-5-15-3-15-1-8v-86l3-18 5-17 8-16 9-13 9-10 10-8 15-9 16-6 15-3z" fill="#FCFDFD"/>
<path transform="translate(855,159)" d="m0 0 9 1 4 5v3l7 1 2 3 10 3 3 6 1 5v33l-2 7-5 4-6 2-3 3-4 2-3 5-6 2h-5l-4-7-3-12-1-7v-8h-2v2h-3l3 17 8 23 14 30 2 9 1 9v16l-7 5h-7l-4-5-2-8 2 13 2 3h16v12l-10 4 10-2-2 4-15 8-19 7-21 5-11 2h-14l-26-4-21-4-14 19-8 12-5-2-3-3-1 3-6-1-11-6-5-8-3-4 1 8 7 8 14 7 10 1-3 10-4 6-37 1-19 38-11 23-3 4v-299h-5v-1h12l10 5 7 8 5 11 1 3v18l5 1v12l-3 10-5 3-2 19-3-1-5-13 2 9 4 6 5 11 5 6 15 8 6 3 5 8 1 3-1-8-3-3v-3l12-4 5-1h9l11 4 19 11 7 3h9l10-2h7 2 14l13 2 4 2 1-5 4-15 1-7v-14l-3-16-5-13-4-6-12-5-8-3-3-5v-3h-3v14l-2 12-3 7-6 1-7-3-2-5h-5l-4-4-8-2-3-3-3-20v-23l3-7 3-2 6-1 4-5h5l2-6 3-3h10l3 4 2 8 2 23h5l1-7 5-5h6l4-2h7l2-1h11l6-1 8 6 4 9 1-6 1-18 2-9z" fill="#FAFBFB"/>
<path transform="translate(536,406)" d="m0 0h72l10 19 23 46 1 222h-33l-1-144-14-28-10-19-23-45-15-29-10-19z" fill="#FDFDFD"/>
<path transform="translate(712,405)" d="m0 0 35 1-2 6-42 78-15 28-14 26-3 5-1 145h-61v-1l32-1v-220h2l2-6 25-51 5-9z" fill="#A4B2BB"/>
<path transform="translate(609,325)" d="m0 0 8 1 4 4 1 2v8l-8 16-3 7h-1v-8l5-13 1-9-1-1h-11l-3 1h-7l-7-3v-1l14-1z" fill="#394458"/>
<path transform="translate(662,325)" d="m0 0h9l6 3 13 1-3 2-3 1h-9l-3-1h-9l-2 2 1 9 5 13v6l-2-3-8-14-2-7 1-7 4-4z" fill="#394458"/>
<path transform="translate(458,319)" d="m0 0 1 2-7 8-4 3 14 5 1 2-15-2-16-5v-3l9-3 12-3z" fill="#394458"/>
<path transform="translate(533,350)" d="m0 0 5 1 7 2h11l6-2h14v3l8-3 3 1-11 5-7 2v-3l-6 2-13-1-13-4z" fill="#394458"/>
<path transform="translate(818,319)" d="m0 0h2v2l5 2 19 5 2 1v2l-24 7h-7l4-3 6-2 7-1-6-3-8-8z" fill="#3A4559"/>
<path transform="translate(609,366)" d="m0 0h1v8l-3 10-8 10-3 2h-7l-5-2 4-2 9-2 8-16z" fill="#394458"/>
<path transform="translate(691,351)" d="m0 0 6 1 6 2-2-3h16l5 2h8l11-2-2 2-10 3-16 1-7-3 2 4-10-3-7-3z" fill="#394458"/>
<path transform="translate(667,366)" d="m0 0 3 4 8 16 1 4 14 2v2l-3 1h-9l-6-5-6-10-2-10z" fill="#394458"/>
<path transform="translate(835,269)" d="m0 0 4 1 1 4-3-1 2 11 2 9 1 3v-9l-1-14 3 3 1 12v14l-2 2-9-20-2-7 2 1z" fill="#4C5769"/>
<path transform="translate(610,290)" d="m0 0h3l4 11 6 5 4 3h-10l-3-3-3-6-7-4v-2z" fill="#394458"/>
<path transform="translate(837,234)" d="m0 0h1l3 13 7 16 2 5 1 6v11l-2 1-3-5 1-2 1 1v-8l-4-10-5-9-2-8z" fill="#414D60"/>
<path transform="translate(664,290)" d="m0 0 5 1 4 3v2l-8 4-4 8-2 1h-7l-1-2 7-4 4-6z" fill="#394458"/>
<path transform="translate(439,234)" d="m0 0h1v14l-5 12-5 11-2 12h-1v-15l9-20z" fill="#394458"/>
<path transform="translate(439,267)" d="m0 0 4 3v9l2-1-1 5-8 18-1-4 4-15 1-8h-3z" fill="#394458"/>
<path transform="translate(836,272)" d="m0 0 5 1 2 14v12l-2-3-2-5-3-15z" fill="#ECEFF0"/>
<path transform="translate(440,273)" d="m0 0 1 4-4 17-2 7h-1v-10l2-16z" fill="#A4B2BB"/>
<path transform="translate(435,273)" d="m0 0h1v10l-1 8v12l-2 2v-26l-4 4 2-5z" fill="#394458"/>
<path transform="translate(784,301)" d="m0 0h2l-3 10 1 8 1 4-5-5-1-2v-8z" fill="#394458"/>
<path transform="translate(462,214)" d="m0 0h2l-1 5-5 5-2 4v7l-2-1-1-8 6-9z" fill="#394458"/>
<path transform="translate(813,214)" d="m0 0 4 1 7 10-1 8h-1l-1-7-5-7h-2z" fill="#394458"/>
<path transform="translate(825,333)" d="m0 0h8v2l-11 3h-7l4-3z" fill="#394458"/>
<path transform="translate(841,273)" d="m0 0 3 3v22h-1l-2-18z" fill="#394458"/>
<path transform="translate(479,213)" d="m0 0 2 1-4 4-7-1-3 3-4-1 4-2 2-3 7 1z" fill="#394458"/>
<path transform="translate(439,267)" d="m0 0 4 3-1 7-2-3h-3z" fill="#3C475B"/>
<path transform="translate(797,212)" d="m0 0 4 3 7-1 4 5-4-2-6 1-5-4z" fill="#394458"/>
</svg>
